# xmcd CD database file
#
# Track frame offsets:
#	150
#	10147
#	33812
#	49965
#	74860
#	89282
#	99487
#	125520
#	131602
#	142185
#	182297
#	188647
#	197460
#	207690
#	222762
#	240697
#
# Disc length: 3513 seconds
#
# Revision: 0
# Processed by: cddbd v1.5.1PL0 Copyright (c) Steve Scherf et al.
# Submitted via: CDex 1.51
#
DISCID=eb0db710
DTITLE=James Brown - Cold Sweet
DYEAR=1900
DGENRE=Blues
TTITLE0=Give it up turn it loose
TTITLE1=Too funky in here
TTITLE2=Gonna have a funky good time
TTITLE3=Try me
TTITLE4=Get on the good foot
TTITLE5=Get up offa that thing
TTITLE6=Georgia on my mind
TTITLE7=Hot pants
TTITLE8=I got the feeling
TTITLE9=It압 a man압 man압 man압 world
TTITLE10=Cold sweat
TTITLE11=I can앖 stand it
TTITLE12=Papa압 got a brand new bag
TTITLE13=I feel good
TTITLE14=Please please please
TTITLE15=Jam
EXTD=
EXTT0=
EXTT1=
EXTT2=
EXTT3=
EXTT4=
EXTT5=
EXTT6=
EXTT7=
EXTT8=
EXTT9=
EXTT10=
EXTT11=
EXTT12=
EXTT13=
EXTT14=
EXTT15=
PLAYORDER=
